<?xml version="1.0" encoding="UTF-8" standalone="no"?>
<svg
   xmlns:dc="http://purl.org/dc/elements/1.1/"
   xmlns:cc="http://creativecommons.org/ns#"
   xmlns:rdf="http://www.w3.org/1999/02/22-rdf-syntax-ns#"
   xmlns:svg="http://www.w3.org/2000/svg"
   xmlns="http://www.w3.org/2000/svg"
   id="svg8"
   version="1.1"
   viewBox="0 0 135.46666 135.46667"
   height="512"
   width="512">
  <defs
     id="defs2" />
  <metadata
     id="metadata5">
    <rdf:RDF>
      <cc:Work
         rdf:about="">
        <dc:format>image/svg+xml</dc:format>
        <dc:type
           rdf:resource="http://purl.org/dc/dcmitype/StillImage" />
        <dc:title></dc:title>
        <cc:license
           rdf:resource="http://creativecommons.org/publicdomain/zero/1.0/" />
        <dc:creator>
          <cc:Agent>
            <dc:title>Francesco Martini</dc:title>
          </cc:Agent>
        </dc:creator>
      </cc:Work>
      <cc:License
         rdf:about="http://creativecommons.org/publicdomain/zero/1.0/">
        <cc:permits
           rdf:resource="http://creativecommons.org/ns#Reproduction" />
        <cc:permits
           rdf:resource="http://creativecommons.org/ns#Distribution" />
        <cc:permits
           rdf:resource="http://creativecommons.org/ns#DerivativeWorks" />
      </cc:License>
    </rdf:RDF>
  </metadata>
  <g
     transform="translate(0,-161.53332)"
     id="layer1">
    <g
       transform="matrix(1.2691927,0,0,1.4683741,-14.129719,-109.74718)"
       style="fill:#328cff;fill-opacity:1"
       id="g4593">
      <g
         aria-label="{}"
         transform="matrix(0.86474626,0.30310913,-0.51229878,0.51163989,2.3575572,105.19788)"
         style="font-style:normal;font-weight:normal;font-size:105.83333588px;line-height:1.25;font-family:sans-serif;letter-spacing:0px;word-spacing:0px;fill:#328cff;fill-opacity:1;stroke:none;stroke-width:0.26458332"
         id="text4583">
        <path
           d="m 157.03826,207.69749 v 7.44141 h -3.20394 q -12.86743,0 -17.25992,-3.82406 -4.34083,-3.82406 -4.34083,-15.24455 v -12.35067 q 0,-7.80314 -2.79052,-10.80037 -2.79053,-2.99723 -10.12858,-2.99723 h -3.15227 v -7.38973 h 3.15227 q 7.38973,0 10.12858,-2.94556 2.79052,-2.99723 2.79052,-10.69702 v -12.40235 q 0,-11.42049 4.34083,-15.19287 4.39249,-3.82405 17.25992,-3.82405 h 3.20394 v 7.38973 h -3.51399 q -7.28638,0 -9.50847,2.27376 -2.22209,2.27376 -2.22209,9.56014 v 12.81576 q 0,8.1132 -2.37711,11.78222 -2.32544,3.66903 -8.00985,4.96094 5.73609,1.39526 8.06153,5.06429 2.32543,3.66903 2.32543,11.73055 v 12.81576 q 0,7.28637 2.22209,9.56014 2.22209,2.27376 9.50847,2.27376 z"
           style="font-size:105.83333588px;fill:#328cff;fill-opacity:1;stroke-width:0.26458332"
           id="path4585" />
        <path
           d="m 183.54827,207.69749 h 3.61735 q 7.23471,0 9.40512,-2.22209 2.22208,-2.22208 2.22208,-9.61181 v -12.81576 q 0,-8.06152 2.32544,-11.73055 2.32544,-3.66903 8.06153,-5.06429 -5.73609,-1.29191 -8.06153,-4.96094 -2.32544,-3.66902 -2.32544,-11.78222 v -12.81576 q 0,-7.33805 -2.22208,-9.56014 -2.17041,-2.27376 -9.40512,-2.27376 h -3.61735 v -7.38973 h 3.25562 q 12.86743,0 17.15658,3.82405 4.34082,3.77238 4.34082,15.19287 v 12.40235 q 0,7.69979 2.79052,10.69702 2.79053,2.94556 10.12858,2.94556 h 3.20394 v 7.38973 h -3.20394 q -7.33805,0 -10.12858,2.99723 -2.79052,2.99723 -2.79052,10.80037 v 12.35067 q 0,11.42049 -4.34082,15.24455 -4.28915,3.82406 -17.15658,3.82406 h -3.25562 z"
           style="font-size:105.83333588px;fill:#328cff;fill-opacity:1;stroke-width:0.26458332"
           id="path4587" />
      </g>
    </g>
    <g
       transform="translate(-5.0951977,6.857274)"
       id="g4599">
      <path
         style="fill:#f70000;fill-opacity:1;stroke:#f70000;stroke-width:4.25106042;stroke-linecap:round;stroke-linejoin:miter;stroke-miterlimit:6;stroke-dasharray:none;stroke-opacity:1"
         d="m 97.59541,197.04024 c -28.193892,2.61675 -30.028893,4.30939 -36.179803,30 -6.485851,-25.53833 -6.835749,-27.36876 -36.1798,-30 29.206921,-2.656 30.256195,-4.61657 36.1798,-30.00001 6.264093,25.19508 7.66075,27.13291 36.179803,30.00001 z"
         id="path3729" />
      <path
         style="fill:#f70000;stroke:#f60000;stroke-width:2.11666667;stroke-linecap:butt;stroke-linejoin:miter;stroke-miterlimit:4;stroke-dasharray:none;stroke-opacity:1;fill-opacity:1"
         d="m 103.81382,170.21919 c -7.714811,1.01669 -8.21693,1.67433 -9.900029,11.65594 -1.774751,-9.92244 -1.870495,-10.63362 -9.900032,-11.65594 7.992013,-1.03194 8.27913,-1.79368 9.900032,-11.65594 1.71407,9.78908 2.096243,10.54198 9.900029,11.65594 z"
         id="path3729-3" />
      <path
         style="fill:#f70000;stroke:#f50000;stroke-width:2.11666667;stroke-linecap:butt;stroke-linejoin:miter;stroke-miterlimit:4;stroke-dasharray:none;stroke-opacity:1;fill-opacity:1"
         d="m 126.01993,186.68746 c -7.71482,1.01669 -8.21694,1.67433 -9.90004,11.65594 -1.77475,-9.92244 -1.87049,-10.63362 -9.90003,-11.65594 7.99201,-1.03194 8.27913,-1.79368 9.90003,-11.65594 1.71407,9.78908 2.09625,10.54198 9.90004,11.65594 z"
         id="path3729-3-6" />
      <path
         style="fill:#f70000;stroke:#f50000;stroke-width:2.11666656;stroke-linecap:butt;stroke-linejoin:miter;stroke-miterlimit:4;stroke-dasharray:none;stroke-opacity:1;fill-opacity:1"
         d="m 112.2238,220.13836 c -7.71482,1.01669 -8.21694,1.67433 -9.90004,11.65594 -1.77475,-9.92244 -1.87049,-10.63362 -9.900032,-11.65594 7.992012,-1.03194 8.279132,-1.79368 9.900032,-11.65594 1.71407,9.78908 2.09625,10.54198 9.90004,11.65594 z"
         id="path3729-3-6-7" />
    </g>
  </g>
</svg>
